<svg xmlns="http://www.w3.org/2000/svg" version="1.1" xmlns:xlink="http://www.w3.org/1999/xlink" xmlns:svgjs="http://svgjs.dev/svgjs" width="128" height="128" viewBox="0 0 128 128"><g transform="matrix(0.8046875,0,0,0.8046875,12.466566730798746,3.8573966733871003)"><svg viewBox="0 0 133 155" data-background-color="#ffffff" preserveAspectRatio="xMidYMid meet" height="149" width="128" xmlns="http://www.w3.org/2000/svg" xmlns:xlink="http://www.w3.org/1999/xlink"><g id="tight-bounds" transform="matrix(1,0,0,1,0.04317111459967293,0.25)"><svg viewBox="0 0 132.91365777080063 154.5" height="154.5" width="132.91365777080063"><g><svg viewBox="0 0 132.91365777080063 154.5" height="154.5" width="132.91365777080063"><g><svg viewBox="0 0 132.91365777080063 154.5" height="154.5" width="132.91365777080063"><g><svg viewBox="0 0 132.91365777080063 154.5" height="154.5" width="132.91365777080063"><g><svg viewBox="0 0 132.91365777080063 154.5" height="154.5" width="132.91365777080063"><g transform="matrix(1,0,0,1,0,0)"><svg width="132.91365777080063" viewBox="3.6 -31.75 27.4 31.85" height="154.5" data-palette-color="#ceb700"><path d="M25.65-17.9Q25.6-18.7 25.6-20.3L25.6-20.3 25.6-22.2Q25.6-24.1 25.5-25.05L25.5-25.05Q25.4-25.85 25.4-29.2L25.4-29.2Q25.4-30.4 26.13-31.08 26.85-31.75 28.1-31.75L28.1-31.75Q29.7-31.75 30.25-31.05 30.8-30.35 30.8-28.75L30.8-28.75 30.8-26.85 30.75-21.35Q30.7-19.75 30.7-16.55L30.7-16.55 30.75-12.45Q30.8-11.5 30.8-9.8L30.8-9.8Q30.8-8.45 30.9-5.95L30.9-5.95Q31-3.65 31-2.5L31-2.5Q31-1.55 30.48-0.75 29.95 0.05 29.05 0.05L29.05 0.05Q25.55 0.05 25.55-2.3L25.55-2.3Q25.55-3.6 25.65-5.2L25.65-5.2Q25.75-6.35 25.75-8.7L25.75-8.7Q25.75-10.35 25.65-13.45L25.65-13.45Q23.3-13.25 17.55-13.25L17.55-13.25Q13.95-13.25 11.95-13.28 9.95-13.3 9.05-13.5L9.05-13.5 9-7.75Q9-7.2 9.25-4.8L9.25-4.8Q9.5-3.2 9.5-2L9.5-2Q9.5-1.25 8.63-0.58 7.75 0.1 7 0.1L7 0.1Q5.2 0.1 4.55-0.78 3.9-1.65 3.9-3.45L3.9-3.45 3.85-7.4Q3.8-8.1 3.8-9.35L3.8-9.35Q3.8-11.2 3.7-14.4L3.7-14.4Q3.6-17.3 3.6-18.6L3.6-18.6Q3.6-20.55 3.7-24.05L3.7-24.05Q3.8-27.35 3.8-28.95L3.8-28.95Q3.8-30.55 4.6-31.1 5.4-31.65 6.4-31.65L6.4-31.65Q9.2-31.65 9.2-29.8L9.2-29.8Q9.2-26.5 9.05-23.5L9.05-23.5Q8.95-19.7 8.95-17.95L8.95-17.95Q10.4-17.6 12-17.5 13.6-17.4 16.5-17.4L16.5-17.4Q22.4-17.4 25.65-17.9L25.65-17.9Z" opacity="1" transform="matrix(1,0,0,1,0,0)" fill="#ceb700" class="undefined-text-0" data-fill-palette-color="primary" id="text-0"></path></svg></g></svg></g></svg></g></svg></g></svg></g><defs></defs></svg><rect width="132.91365777080063" height="154.5" fill="none" stroke="none" visibility="hidden"></rect></g></svg></g></svg>